<svg width="144" height="44" viewBox="0 0 144 44" fill="none" xmlns="http://www.w3.org/2000/svg">
<g clip-path="url(#clip0_39_1273)">
<path d="M9.2406 0L4.58644 6.51674V10.2004L0.536502 12.1155L0.5 12.0985V36.1312L16.2901 43.5473L17.2549 44L18.2199 43.5473L34.0098 36.1312V12.0985L33.98 12.1124L29.9291 10.1967V6.51674L29.7873 6.31856L25.2746 0L20.6204 6.51674V6.52317L17.2337 1.78135L13.8734 6.48675L13.7531 6.31856L9.2406 0ZM10.064 3.78545L11.8641 6.3057H6.6171L8.39626 3.81505L10.064 3.78545ZM26.0978 3.78545L27.8983 6.3057H22.6511L24.4299 3.81505L26.0978 3.78545ZM18.057 5.56706L19.8572 8.08718H14.6106L16.3893 5.5964L18.057 5.56706ZM6.11953 7.57592H8.60802V15.9064L6.11953 14.7376V7.57592ZM9.88573 7.57592H12.3619V17.6691L9.88573 16.5064V7.57592ZM22.1538 7.57592H24.6422V16.4977L22.1538 17.6664V7.57592ZM25.9196 7.57592H28.3956V14.7348L25.9196 15.8976V7.57592ZM14.1127 9.35727H16.6014V19.6602L14.1127 18.4913V9.35727ZM17.8791 9.35727H20.3549V18.5114L17.8791 19.6744V9.35727ZM136.174 10.2668L136.162 14.9045L133.66 14.8875V16.7772H136.169V26.7402C136.169 27.4659 136.226 28.1389 136.342 28.7591L136.343 28.7645L136.344 28.77C136.486 29.4037 136.725 29.9561 137.067 30.4171C137.411 30.8819 137.872 31.2392 138.429 31.4804C138.996 31.7488 139.687 31.8741 140.497 31.8741C140.867 31.8741 141.29 31.8143 141.774 31.6996C142.265 31.5829 142.747 31.4345 143.218 31.2554L143.5 31.1486L142.892 29.3364L142.573 29.4827C141.954 29.7494 141.347 29.949 140.698 29.9526C140.175 29.9526 139.764 29.878 139.463 29.7491C139.176 29.5946 138.954 29.4008 138.786 29.1603C138.61 28.8869 138.48 28.5725 138.399 28.2111C138.336 27.8114 138.303 27.366 138.303 26.8734V16.7771H142.952V14.8891H138.303V10.2668H136.174ZM29.9285 12.0951L32.1196 12.9857L29.9285 14.0147V12.0951ZM4.58644 12.0985V14.0178L2.39591 12.9888L4.58644 12.0985ZM107.258 14.4895L107.258 14.4898V14.49C106.203 14.49 105.18 14.7482 104.202 15.2572L104.201 15.2581L104.199 15.2588C103.41 15.68 102.751 16.1198 102.058 16.6395L102.045 14.8892H99.9864V38.6916H102.086V30.1835C102.775 30.6501 103.454 31.0547 104.12 31.3488L104.123 31.3503L104.127 31.3519C104.962 31.6978 105.785 31.8744 106.589 31.8744C107.568 31.8744 108.506 31.6765 109.393 31.2821L109.395 31.2814L109.397 31.2805C110.306 30.8633 111.101 30.2698 111.775 29.5073L111.775 29.5075C112.473 28.721 113.017 27.7753 113.408 26.6786C113.801 25.5752 113.994 24.3309 113.994 22.9495C113.994 20.4229 113.449 18.3792 112.33 16.8483L112.329 16.8476C111.201 15.2823 109.471 14.4895 107.258 14.4895ZM56.4024 14.49C55.3477 14.49 54.3241 14.7482 53.3467 15.2572L53.3451 15.2581L53.3438 15.2588C52.554 15.68 51.895 16.12 51.2021 16.6398L51.1897 14.8892H49.1308V38.6918H51.2307V30.1838C51.9188 30.6505 52.5986 31.0549 53.2642 31.349L53.2676 31.3506L53.2711 31.3522C54.1063 31.6982 54.9291 31.8748 55.7334 31.8748C56.7124 31.8748 57.6508 31.6767 58.5376 31.2823L58.5392 31.2814L58.5411 31.2808C59.4502 30.8637 60.2457 30.2701 60.9198 29.5075L60.9192 29.5078C61.6171 28.7214 62.1613 27.7757 62.5519 26.679C62.9451 25.5755 63.1386 24.3311 63.1386 22.9499C63.1386 20.4233 62.5934 18.3796 61.4741 16.8486L61.4737 16.848C60.3456 15.2831 58.6158 14.4902 56.4024 14.49ZM90.5934 14.49C89.4274 14.49 88.3704 14.7834 87.4501 15.3689C86.6987 15.8288 85.9706 16.4147 85.257 17.0791L85.2717 14.8892H83.2546V31.4755H85.3551V19.4408C86.2869 18.503 87.1261 17.6148 87.8507 17.162L87.8533 17.1602L87.8559 17.1585C88.5869 16.6808 89.3895 16.445 90.2923 16.445C91.5423 16.445 92.3484 16.8118 92.8417 17.5377L92.8444 17.5416L92.8475 17.5459C93.365 18.2582 93.6575 19.4488 93.6575 21.1206V31.4755H95.7577V20.9209C95.7577 18.7982 95.3664 17.1879 94.5208 16.1069C93.6736 15.0241 92.3287 14.49 90.5934 14.49ZM73.3253 14.49C72.3872 14.49 71.4697 14.7011 70.5848 15.1172L70.5835 15.1179C69.718 15.5134 68.9362 16.095 68.2424 16.8537L68.2421 16.8539C67.5658 17.5958 67.0226 18.5067 66.6095 19.5789L66.6083 19.5817L66.6074 19.5844C66.2141 20.6658 66.0199 21.8776 66.0199 23.2155C66.0199 24.5535 66.2141 25.7654 66.6076 26.8468L66.6086 26.8505L66.6103 26.8542C67.024 27.9052 67.579 28.8156 68.2759 29.5777L68.2777 29.5792L68.2792 29.5811C68.9769 30.3209 69.7957 30.891 70.7269 31.2845L70.7282 31.2849L70.7296 31.2853C71.6823 31.6779 72.6955 31.8743 73.7601 31.8743C74.9701 31.8743 75.9811 31.7063 76.794 31.3505L76.7956 31.3495C77.5861 31.0127 78.3108 30.6525 78.9698 30.2686L79.2296 30.1174L78.3155 28.4011L78.0216 28.6174C77.4438 29.043 76.8739 29.3077 76.1877 29.5638C75.5362 29.7931 74.7328 29.9107 73.8938 29.9107C73.0197 29.9107 72.2434 29.8283 71.5532 29.5172C70.8561 29.1807 70.2582 28.7317 69.7516 28.1664C69.2664 27.5781 68.8838 26.8834 68.6054 26.0745L68.6051 26.0739C68.3581 25.3368 68.2283 24.5385 68.1829 23.6946H79.7613C79.7613 23.369 79.7928 23.0565 79.7939 22.7835V22.1849C79.7939 19.7869 79.2344 17.887 78.0808 16.5296C76.9295 15.175 75.3136 14.4902 73.3251 14.4902L73.3253 14.49ZM124.22 14.49C123.22 14.49 122.26 14.6877 121.352 15.0813C120.443 15.4751 119.637 16.045 118.94 16.7835L118.939 16.7855L118.937 16.7873C118.259 17.5304 117.716 18.4533 117.303 19.5478L117.302 19.5493L117.302 19.5512C116.908 20.6331 116.714 21.8559 116.714 23.2155C116.714 24.5751 116.908 25.7981 117.302 26.8801L117.303 26.8838L117.305 26.8876C117.718 27.9373 118.261 28.8366 118.936 29.5774L118.938 29.5791L118.94 29.5811C119.637 30.3198 120.443 30.8893 121.352 31.2831C122.26 31.6769 123.22 31.8744 124.22 31.8744C125.221 31.8744 126.18 31.6767 127.089 31.2831C128.019 30.8897 128.827 30.3195 129.502 29.5793C130.201 28.8375 130.746 27.9357 131.137 26.8834C131.554 25.8004 131.76 24.576 131.76 23.2155C131.76 21.8556 131.554 20.6317 131.138 19.5492C130.747 18.4536 130.203 17.5289 129.502 16.7851C128.826 16.0452 128.019 15.4747 127.089 15.0813C126.18 14.6877 125.221 14.49 124.22 14.49H124.22ZM2.4297 15.1265L16.2901 21.6359V41.4252L2.42957 34.9159L2.4297 15.1265ZM32.08 15.1265V34.9159L18.2199 41.4252V21.6358L32.08 15.1265ZM73.3583 16.3783H73.3585C74.7338 16.3783 75.7704 16.8422 76.5618 17.7946L76.5624 17.7959L76.5634 17.7974C77.2987 18.6632 77.6994 20.0245 77.7431 21.8725H68.2067C68.3064 21.0902 68.472 20.3718 68.7313 19.7454C69.053 19.0218 69.4459 18.4115 69.9087 17.9091C70.3949 17.4055 70.9265 17.0338 71.5086 16.7857L71.5128 16.7837L71.5171 16.7817C72.1013 16.5121 72.7108 16.3784 73.3581 16.3784L73.3583 16.3783ZM56.1683 16.4116C57.0417 16.4116 57.7661 16.5802 58.3579 16.9049L58.3617 16.9068L58.3655 16.9089C58.9648 17.2171 59.4437 17.6521 59.8174 18.2301L59.8191 18.2324L59.8205 18.2344C60.196 18.7946 60.4725 19.4762 60.6441 20.2869L60.6448 20.2909L60.6461 20.2948C60.8404 21.1107 60.9386 21.9954 60.9386 22.9496C60.9386 24.0083 60.7972 24.9731 60.5183 25.8479L60.5174 25.8502L60.5168 25.8526C60.2584 26.7089 59.8954 27.4384 59.4302 28.048C58.9658 28.6567 58.4128 29.1225 57.7634 29.4557C57.1162 29.7877 56.4228 29.9529 55.6665 29.9529C55.0945 29.9529 54.4169 29.8089 53.6397 29.5086C52.9121 29.2271 52.1032 28.5358 51.2311 27.848V19.0131C52.1561 18.2294 53.0189 17.4859 53.806 17.074L53.8073 17.0736L53.8086 17.0727C54.6427 16.6262 55.4266 16.4116 56.1683 16.4116ZM107.024 16.4114L107.024 16.4116C107.897 16.4116 108.622 16.5802 109.214 16.9049L109.217 16.9068L109.221 16.9089C109.82 17.2171 110.299 17.6521 110.673 18.2301L110.675 18.2324L110.676 18.2344C111.052 18.7946 111.328 19.4762 111.5 20.2869L111.5 20.2909L111.502 20.2948C111.696 21.1107 111.794 21.9954 111.794 22.9496C111.794 24.0083 111.653 24.9731 111.374 25.8479L111.373 25.8502L111.372 25.8526C111.114 26.7089 110.751 27.4384 110.286 28.048C109.821 28.6567 109.268 29.1225 108.619 29.4557C107.972 29.7877 107.278 29.9529 106.522 29.9529C105.95 29.9529 105.272 29.8089 104.495 29.5086C103.767 29.2271 102.959 28.5358 102.086 27.848V19.0131C103.011 18.2294 103.874 17.4859 104.661 17.074L104.663 17.0733L104.664 17.0727C105.498 16.6262 106.282 16.4115 107.024 16.4115V16.4114ZM124.22 16.4114V16.4116C124.977 16.4116 125.67 16.577 126.317 16.9091L126.323 16.9117L126.328 16.9143C126.996 17.2257 127.556 17.6779 128.018 18.2835L128.021 18.2882L128.025 18.2927C128.511 18.8808 128.894 19.5879 129.174 20.4213C129.452 21.2495 129.593 22.1796 129.593 23.2156C129.593 24.2287 129.452 25.1476 129.174 25.9765C128.894 26.81 128.511 27.5168 128.025 28.1049L128.023 28.1076L128.021 28.1104C127.558 28.6954 126.996 29.1511 126.323 29.4859C125.675 29.7973 124.979 29.9528 124.22 29.9528C123.463 29.9528 122.767 29.7974 122.12 29.4868C121.469 29.1522 120.904 28.6949 120.418 28.1069C119.953 27.5187 119.58 26.8106 119.3 25.9765C119.022 25.1475 118.881 24.2287 118.881 23.2155C118.881 22.1796 119.023 21.2495 119.3 20.4213C119.58 19.5861 119.954 18.8773 120.419 18.2887L120.419 18.2883L120.42 18.2874C120.906 17.6781 121.469 17.2236 122.116 16.9125L122.12 16.9105L122.123 16.909C122.77 16.5769 123.464 16.4115 124.22 16.4115L124.22 16.4114Z" fill="black"/>
</g>
<defs>
<clipPath id="clip0_39_1273">
<rect width="143" height="44" fill="white" transform="translate(0.5)"/>
</clipPath>
</defs>
</svg>
